<?xml version="1.0"?>
<svg width="99" height="29" xmlns="http://www.w3.org/2000/svg" xmlns:svg="http://www.w3.org/2000/svg">
 <defs>
  <clipPath id="clip0_43_2">
   <rect fill="white" height="29" id="svg_1" width="98.91"/>
  </clipPath>
 </defs>
 <g class="layer">
  <title>Layer 1</title>
  <g clip-path="url(#clip0_43_2)" id="svg_2">
   <path d="m17.99,27.96c-0.37,0.58 -1.24,1.04 -1.92,1.04l-8.35,0c-0.68,0 -0.94,-0.47 -0.56,-1.04l9.46,-14.3c0.38,-0.57 1.24,-1.04 1.93,-1.04l8.34,0c0.69,0 0.94,0.47 0.56,1.04l-9.46,14.3z" fill="#4079E0" id="svg_6"/>
   <path d="m9.9,1.04c0.38,-0.57 1.25,-1.04 1.93,-1.04l8.61,0c0.69,0 0.94,0.47 0.56,1.04l-9.73,14.83c-0.38,0.57 -1.24,1.04 -1.93,1.04l-8.61,0c-0.68,0 -0.93,-0.47 -0.56,-1.04l9.73,-14.83z" fill="#605EBA" id="svg_7"/>
  </g>
 </g>
</svg>